<?xml version="1.0" encoding="UTF-8" standalone="no"?>
<svg
   version="1.1"
   width="100%"
   height="100%"
   viewBox="0 0 1000 600"
   id="svg12"
   sodipodi:docname="logo.svg"
   inkscape:version="1.2.2 (b0a8486541, 2022-12-01)"
   xmlns:inkscape="http://www.inkscape.org/namespaces/inkscape"
   xmlns:sodipodi="http://sodipodi.sourceforge.net/DTD/sodipodi-0.dtd"
   xmlns="http://www.w3.org/2000/svg"
   xmlns:svg="http://www.w3.org/2000/svg">
  <defs
     id="defs16" />
  <sodipodi:namedview
     id="namedview14"
     pagecolor="#ffffff"
     bordercolor="#000000"
     borderopacity="0.25"
     inkscape:showpageshadow="2"
     inkscape:pageopacity="0.0"
     inkscape:pagecheckerboard="0"
     inkscape:deskcolor="#d1d1d1"
     showgrid="false"
     inkscape:zoom="0.39333333"
     inkscape:cx="491.94915"
     inkscape:cy="301.27119"
     inkscape:window-width="1600"
     inkscape:window-height="830"
     inkscape:window-x="0"
     inkscape:window-y="0"
     inkscape:window-maximized="1"
     inkscape:current-layer="svg12" />
  <path
     id="circle4"
     style="stroke-width:1.02916;fill:#5de2e7;fill-opacity:1"
     d="M 296.52734 128.47266 A 171.52661 171.52661 0 0 0 125 300 A 171.52661 171.52661 0 0 0 296.52734 471.52734 A 171.52661 171.52661 0 0 0 468.05273 300 A 171.52661 171.52661 0 0 0 296.52734 128.47266 z M 270.66406 222.8125 L 324.69531 222.8125 L 324.69531 237.39258 L 270.66406 237.39258 L 270.66406 222.8125 z M 305.02344 244.33398 L 321.90625 244.33398 L 287.54883 355.58594 L 271.36133 355.58594 L 305.02344 244.33398 z M 268.35938 362.60742 L 321.31836 362.60742 L 321.31836 377.1875 L 268.35938 377.1875 L 268.35938 362.60742 z " />
  <path
     d="m 554.05235,326.86539 v 0 q -0.0643,-3.47341 -0.0429,-6.75386 0.0429,-3.28045 0.19296,-6.45369 v 0 h 11.74958 q -0.17153,4.78131 -0.12865,8.34048 0.0429,3.55918 0.0429,6.17496 v 0 q 0.0857,4.0952 1.45797,6.13208 1.39366,2.05832 4.48114,2.65866 v 0 10.35592 q -9.49829,-0.70755 -13.42196,-5.55317 -3.94511,-4.86707 -4.33105,-14.90138 z m 26.00772,20.45455 v 0 -10.18439 q 3.55918,-0.62179 5.1458,-2.70155 1.58662,-2.1012 1.7367,-6.34648 v 0 q 0.0643,-2.22985 0.0643,-3.73071 0,-1.50085 0,-2.93739 0,-1.43654 -0.0643,-3.28045 v 0 q -0.15008,-5.25299 -1.54374,-7.80446 -1.39364,-2.53001 -5.55317,-3.85935 v 0 l -8.72641,-2.46569 q -6.17496,-1.77959 -9.88422,-4.48113 -3.70926,-2.70155 -5.44597,-7.01115 -1.73671,-4.33105 -1.88679,-11.12779 v 0 q -0.0857,-2.61578 -0.0857,-4.35249 0,-1.73671 0.0857,-3.75214 v 0 q 0.15008,-10.09863 4.35248,-15.00858 4.22385,-4.8885 14.32247,-5.59605 v 0 10.27015 q -3.08747,0.62178 -4.35249,2.61578 -1.28645,2.01543 -1.43653,6.02488 v 0 q -0.0643,1.39364 -0.15008,3.60205 -0.0857,2.18697 0,4.97427 v 0 q 0.0857,5.31733 1.30789,8.53345 1.24356,3.19468 6.02487,4.58834 v 0 l 8.10463,2.16552 q 8.79074,2.22984 13.01458,7.247 4.2024,5.01715 4.2024,14.9657 v 0 q 0,2.63722 -0.0429,4.71697 -0.0429,2.07977 -0.19296,4.78131 v 0 q -0.23586,9.88422 -4.48114,14.66553 -4.24528,4.7813 -14.51544,5.48885 z m 18.31047,-61.29932 H 586.3208 q 0.15008,-2.37993 0.15008,-5.12436 0,-2.74442 0,-5.21012 0,-2.46569 -0.0643,-4.15952 v 0 q -0.0857,-3.94512 -1.32934,-5.96055 -1.22212,-1.994 -4.24528,-2.53001 v 0 -10.35592 q 9.34821,0.70755 13.40052,5.53173 4.05232,4.82419 4.43825,14.85849 v 0 q 0,1.15781 0,3.58061 0,2.42282 -0.0429,5.01716 -0.0429,2.59434 -0.25729,4.35249 z m 82.20412,60.29159 h -22.08405 l -3.55918,-35.65608 -3.38764,-46.69812 h -3.08748 l -3.55919,46.69812 -2.07975,18.9108 h -10.03431 l 1.69382,-29.18096 4.80275,-46.31218 h 21.52659 l 4.63122,46.31218 2.70155,36.04203 h 13.74356 z m -39.45111,0 h -22.14838 l -11.19211,-92.62436 h 13.1861 l 4.71699,46.69812 2.70155,36.04203 h 13.74356 z m 41.68096,-16.74528 h -10.27016 l 1.86535,-29.18096 4.69554,-46.69812 h 13.12179 z m 17.13122,-0.70754 v 0 q -0.0643,-1.92968 -0.10721,-3.81647 -0.0429,-1.8868 0.0429,-3.81647 v 0 q 0.38594,-5.63893 2.12265,-9.99142 1.7367,-4.37393 5.66037,-7.95455 3.94511,-3.58061 10.80618,-6.83962 v 0 q 1.86535,-0.83619 3.79502,-1.75815 1.92968,-0.9434 4.00944,-1.77959 v 0 9.02659 q -1.15781,0.62178 -2.44426,1.39365 -1.265,0.77187 -2.72298,1.7796 v 0 q -4.95283,2.85162 -6.56089,7.16123 -1.6295,4.33104 -1.71527,9.04803 v 0 q -0.0643,2.07976 -0.0214,3.58061 0.0214,1.50086 0.10721,3.13036 v 0 q 0.38593,4.48114 2.80874,7.01115 2.44425,2.55147 6.68954,2.55147 v 0 q 2.16552,0 3.85935,-0.62179 v 0 8.34048 q -3.17324,2.01544 -8.1904,2.01544 v 0 q -8.64064,0 -13.03602,-4.48114 -4.39537,-4.48112 -5.10291,-13.97941 z m 14.51544,-42.83877 h -12.50001 q -0.15008,-3.00172 -0.19297,-6.51801 -0.0429,-3.5163 0.0429,-6.6681 v 0 q 0.45026,-9.58405 4.65265,-14.47256 4.22385,-4.90994 14.55833,-5.68181 v 0 10.18439 q -2.9374,0.62178 -4.63122,2.55146 -1.69383,1.92967 -1.92967,5.78902 v 0 q -0.0857,2.07976 -0.10721,5.06003 -0.0429,2.98028 0,5.68182 0.0214,2.70155 0.10721,4.07376 z m 32.71869,60.29159 h -12.65008 v -74.24957 q 0,-3.79503 -1.20069,-5.9391 -1.20069,-2.16553 -4.05232,-2.9374 v 0 -10.506 q 10.18439,0.77187 14.08663,6.02486 3.90223,5.25301 3.90223,15.9091 v 0 z M 776.88684,377.187 H 763.76506 V 253.68785 h 13.12178 z m 8.27616,-32.26843 v -8.01887 q 0.92196,0.38593 2.12265,0.53601 1.17924,0.1501 2.42281,0.1501 v 0 q 4.63122,0 6.94683,-2.12265 2.31561,-2.12264 2.46569,-6.98971 v 0 q 0.32161,-9.17668 0.4717,-16.61663 0.15009,-7.46141 0.1072,-14.0223 -0.0429,-6.5609 -0.19296,-13.03603 -0.15009,-6.49657 -0.38594,-13.59348 v 0 q -0.15008,-4.69554 -2.16553,-6.79674 -1.99399,-2.07976 -6.56089,-2.07976 v 0 q -2.91595,0 -5.23156,0.92195 v 0 -8.25471 q 1.84392,-1.22213 4.15953,-1.84392 2.31561,-0.62178 5.55317,-0.62178 v 0 q 8.42624,0 12.69296,4.63121 4.28817,4.63122 4.67411,15.28732 v 0 q 0.15008,4.69554 0.23585,12.00686 0.0857,7.28988 0.0857,15.39451 0,8.10463 -0.0857,15.48028 -0.0857,7.3542 -0.23585,12.22127 v 0 q -0.38594,10.57032 -4.97427,15.24443 -4.58834,4.67409 -13.01459,4.67409 v 0 q -5.55317,0 -9.09091,-2.55145 z m 41.29503,-17.36707 v 0 q -0.17153,-6.17496 -0.23585,-13.35764 -0.0857,-7.16123 -0.0857,-14.53688 0,-7.37564 0.0857,-14.40823 0.0643,-7.01115 0.23585,-12.80017 v 0 q 0.38594,-10.89194 4.84563,-15.39451 4.48113,-4.52402 12.67152,-4.52402 v 0 q 3.15181,0 5.55318,0.66467 2.40137,0.64322 4.24529,1.95111 v 0 8.19039 q -2.40138,-1.00771 -5.31733,-1.00771 v 0 q -4.63122,0 -6.64665,2.07976 -2.01545,2.1012 -2.16553,6.79674 v 0 q -0.30017,9.49828 -0.42882,19.68268 -0.1072,10.18439 -0.0214,19.81132 0.0643,9.60549 0.38594,17.47427 v 0 q 0.15008,5.253 2.27272,7.33276 2.12265,2.07977 6.51802,2.07977 v 0 q 3.17324,0 5.40309,-0.92197 v 0 8.01888 q -2.01545,1.32933 -4.43825,2.05831 -2.42282,0.72899 -5.68183,0.72899 v 0 q -8.55489,0 -12.65008,-4.67409 -4.0952,-4.67411 -4.54546,-15.24443 z m 48.54203,18.76071 H 861.79251 V 222.81306 h 13.20755 z"
     fill="#5de2e7"
     id="path8"
     style="stroke-width:1.02916" />
</svg>
