<?xml version="1.0" encoding="UTF-8" standalone="no"?>
<svg
   version="1.1"
   width="775"
   height="230"
   viewBox="0 0 775 230"
   id="svg12"
   sodipodi:docname="logo.svg"
   inkscape:version="1.2.2 (b0a8486541, 2022-12-01)"
   xmlns:inkscape="http://www.inkscape.org/namespaces/inkscape"
   xmlns:sodipodi="http://sodipodi.sourceforge.net/DTD/sodipodi-0.dtd"
   xmlns="http://www.w3.org/2000/svg"
   xmlns:svg="http://www.w3.org/2000/svg">
  <defs
     id="defs16" />
  <sodipodi:namedview
     id="namedview14"
     pagecolor="#ffffff"
     bordercolor="#000000"
     borderopacity="0.25"
     inkscape:showpageshadow="2"
     inkscape:pageopacity="0.0"
     inkscape:pagecheckerboard="0"
     inkscape:deskcolor="#d1d1d1"
     showgrid="false"
     inkscape:zoom="0.39333333"
     inkscape:cx="444.91525"
     inkscape:cy="301.27119"
     inkscape:window-width="1600"
     inkscape:window-height="830"
     inkscape:window-x="0"
     inkscape:window-y="0"
     inkscape:window-maximized="1"
     inkscape:current-layer="svg12" />
  <g
     id="g305"
     transform="matrix(1,0,0,1.0073764,-112.50002,-187.21292)">
    <circle
       r="101.74945"
       cx="226.74947"
       cy="300"
       fill="#317773"
       id="circle4"
       style="fill:#008066;stroke-width:0.610497" />
    <path
       d="m 226.84216,345.78727 v 0 q -9.01379,0 -15.84943,-1.83056 -6.85882,-1.83057 -11.35413,-5.32949 -4.49531,-3.49892 -6.83564,-8.3418 -2.34034,-4.84289 -2.34034,-11.00656 v 0 q 0,-0.83418 0,-1.59885 0,-0.74149 0.1622,-1.25126 v 0 h 14.52864 q -0.18537,0.67198 -0.18537,1.18175 0,0.48661 0,0.99638 v 0 q 0.18537,5.83927 3.10501,9.17599 2.91963,3.33672 8.08692,4.65751 5.16728,1.34396 11.51632,1.34396 v 0 q 5.49169,0 10.17238,-1.41347 4.6575,-1.41348 7.41494,-4.33311 2.75743,-2.91963 2.75743,-7.43811 v 0 q 0,-5.49169 -3.59162,-8.41132 -3.59161,-2.91963 -9.43088,-4.58799 -5.83926,-1.66837 -12.16513,-3.52211 v 0 q -5.35266,-1.48298 -10.68214,-3.33671 -5.32949,-1.83057 -9.59309,-4.49531 -4.26358,-2.66475 -6.83564,-6.92834 -2.59523,-4.24042 -2.59523,-10.75166 v 0 q 0,-5.83926 2.43303,-10.35774 2.40985,-4.49531 6.90516,-7.66983 4.51848,-3.17452 10.93703,-4.75019 6.41856,-1.57568 14.27376,-1.57568 v 0 q 8.34181,0 14.59816,1.83057 6.25636,1.83056 10.42726,5.16728 4.1709,3.33672 6.16367,7.60031 1.99276,4.24042 1.99276,9.0833 v 0 q 0,0.99638 0,1.92325 0,0.9037 -0.1622,1.41348 v 0 h -14.34327 v -1.83057 q 0,-3.33672 -1.76104,-6.41855 -1.73788,-3.10501 -6.00147,-5.00509 -4.24042,-1.92325 -11.74805,-1.92325 v 0 q -4.84288,0 -8.34181,0.74149 -3.52209,0.76467 -5.83926,2.34034 -2.34034,1.57568 -3.5221,3.66113 -1.15858,2.08545 -1.15858,4.77337 v 0 q 0,4.3331 2.82695,6.67345 2.85011,2.31716 7.60031,3.82332 4.75019,1.50616 10.26505,3.33673 v 0 q 5.83927,1.66836 11.93343,3.4294 6.07098,1.73788 11.16875,4.4258 5.09776,2.66474 8.1796,7.25273 3.08184,4.588 3.08184,12.09562 v 0 q 0,6.99785 -2.66475,12.16514 -2.66474,5.19045 -7.60031,8.52718 -4.9124,3.33672 -11.51633,4.9124 -6.58076,1.57567 -14.41279,1.57567 z"
       fill="#e2d1f9"
       id="path6"
       style="fill:#aaffee;stroke-width:0.610497" />
    <path
       d="m 388.35794,264.23317 h -8.9843 v -10.0204 h 8.9843 z m 0,63.86937 h -8.9843 v -53.74963 h 8.9843 z m 22.99297,0 h -8.98429 v -53.74963 h 7.25272 l 0.82321,8.07593 h 0.70966 q 2.04382,-3.27863 4.59859,-5.32245 2.55478,-2.04382 5.62051,-3.00895 3.06573,-0.97934 6.64241,-0.97934 v 0 q 5.2089,0 8.99849,2.1006 3.77539,2.10059 5.62051,7.21014 v 0 h 0.6103 q 1.94447,-3.27863 4.49924,-5.26567 2.55478,-2.00124 5.71986,-3.02316 3.16509,-1.02191 6.74177,-1.02191 v 0 q 4.91084,0 8.58688,1.689 3.67604,1.68899 5.77663,5.52115 2.0864,3.83216 2.0864,10.27587 v 0 37.49842 h -8.98429 v -36.0791 q 0,-3.26444 -0.76643,-5.4076 -0.76644,-2.14318 -2.19995,-3.32121 -1.43351,-1.17804 -3.32121,-1.68899 -1.88769,-0.51096 -4.04506,-0.51096 v 0 q -3.57668,0 -6.58564,1.84512 -3.00896,1.83092 -4.85407,5.30825 -1.84511,3.47733 -1.84511,8.27463 v 0 31.57986 h -8.9843 v -36.0791 q 0,-3.26444 -0.8232,-5.4076 -0.80902,-2.14318 -2.14318,-3.32121 -1.33416,-1.17804 -3.22185,-1.68899 -1.8877,-0.51096 -3.93151,-0.51096 v 0 q -3.67604,0 -6.79855,1.84512 -3.10831,1.83092 -4.95342,5.30825 -1.84512,3.47733 -1.84512,8.27463 v 0 z m 87.88427,17.68472 h -8.9843 v -71.43435 h 7.15338 l 0.92255,7.66433 h 0.70966 q 2.75348,-4.49924 7.05402,-6.69919 4.28634,-2.19995 9.70815,-2.19995 v 0 q 6.74176,0 11.43971,2.96638 4.69795,2.96638 7.25272,9.25397 2.55478,6.28758 2.55478,16.29379 v 0 q 0,9.41008 -2.59736,15.58412 -2.61154,6.18824 -7.30949,9.15461 -4.69795,2.95219 -10.92876,2.95219 v 0 q -3.47733,0 -6.54307,-0.80902 -3.06573,-0.8232 -5.52115,-2.61154 -2.45542,-1.78834 -4.28635,-4.54182 v 0 h -0.62449 z m 14.10803,-24.32713 v 0 q 5.0102,0 8.17528,-1.98705 3.16508,-2.00124 4.69795,-6.245 1.53286,-4.22958 1.53286,-10.87199 v 0 -2.15737 q 0,-7.03982 -1.63221,-11.28359 -1.63222,-4.24376 -4.75472,-6.08888 -3.10832,-1.83092 -7.70691,-1.83092 v 0 q -5.0102,0 -8.23205,2.19994 -3.22186,2.18576 -4.69795,6.58564 -1.49028,4.3999 -1.49028,10.73006 v 0 1.53287 q 0,5.6205 1.07868,9.35332 1.07868,3.7328 3.06573,5.97533 1.98704,2.24252 4.54182,3.16508 2.55478,0.92256 5.4218,0.92256 z m 43.84278,6.64241 h -8.99848 v -73.88977 h 8.99848 z m 35.4546,1.22062 v 0 q -7.96238,0 -13.44095,-3.00896 -5.46438,-3.00895 -8.27464,-9.25396 -2.81025,-6.23082 -2.81025,-15.83961 v 0 q 0,-9.70815 2.81025,-15.88218 2.81026,-6.18824 8.33141,-9.19719 5.52115,-3.02316 13.79579,-3.02316 v 0 q 7.56497,0 12.67452,2.92381 5.10957,2.9096 7.70693,8.68623 2.61152,5.76243 2.61152,14.44867 v 0 4.30054 h -38.63388 q 0.2129,6.42952 1.90189,10.57393 1.6748,4.14441 5.05278,6.03211 3.37798,1.8877 8.48753,1.8877 v 0 q 3.46314,0 6.07469,-0.86579 2.61155,-0.86578 4.39989,-2.5122 1.78834,-1.63221 2.69671,-3.87474 0.92255,-2.25672 1.02191,-4.91085 v 0 h 8.79976 q -0.11355,4.30054 -1.64639,7.91981 -1.53289,3.63346 -4.48505,6.18823 -2.96638,2.55477 -7.26692,3.98829 -4.28635,1.41932 -9.8075,1.41932 z m -15.0164,-32.58758 v 0 h 29.12444 q 0,-4.49924 -1.02191,-7.56497 -1.02191,-3.06573 -2.90961,-5.0102 -1.90189,-1.94446 -4.39989,-2.81025 -2.498,-0.86578 -5.67727,-0.86578 v 0 q -4.69795,0 -7.96239,1.73157 -3.27863,1.74576 -5.0102,5.32244 -1.73157,3.57669 -2.14317,9.19719 z m 72.45629,8.27464 h -25.86003 v -9.09784 h 25.86003 z m 51.70577,23.09232 h -44.45307 v -4.79729 l 29.93345,-41.38736 h -27.7903 v -7.56498 h 40.6777 v 4.69795 l -30.047,41.48671 h 31.67922 z m 19.31697,0 h -8.99848 v -53.74963 h 7.2527 l 0.8232,8.88495 h 0.70964 q 0.82325,-2.55478 2.25676,-4.85408 1.41928,-2.2993 3.8747,-3.77539 2.45542,-1.49029 6.03214,-1.49029 v 0 q 1.53283,0 2.81023,0.25548 1.27741,0.25548 1.88772,0.56773 v 0 8.27464 h -3.36377 q -3.47733,0 -5.98959,1.17803 -2.49797,1.17804 -4.13019,3.32121 -1.63222,2.14317 -2.39864,5.10955 -0.76642,2.96637 -0.76642,6.33016 v 0 z m 37.39903,1.22062 v 0 q -2.96635,0 -5.93275,-0.70966 -2.96634,-0.70966 -5.52115,-2.35607 -2.55474,-1.63222 -4.08764,-4.54182 -1.53283,-2.90961 -1.53283,-7.3095 v 0 q 0,-5.52115 2.66829,-9.09783 2.65414,-3.57669 7.40887,-5.56374 4.74051,-1.98705 11.28357,-2.75348 6.54305,-0.76643 14.20741,-0.76643 v 0 -6.13146 q 0,-2.96638 -1.02191,-5.10955 -1.02191,-2.15737 -3.63349,-3.32121 -2.59736,-1.17803 -7.40881,-1.17803 v 0 q -4.59862,0 -7.29531,1.17803 -2.71091,1.16384 -3.7896,3.00896 -1.06452,1.84512 -1.06452,4.08763 v 0 1.53287 h -8.68621 q -0.11355,-0.51096 -0.11355,-1.02191 0,-0.51096 0,-1.22062 v 0 q 0,-4.91084 2.71091,-8.23205 2.71091,-3.3212 7.62175,-5.01019 4.89667,-1.689 11.24101,-1.689 v 0 q 6.74178,0 11.28357,1.94447 4.55601,1.94447 6.85533,5.52116 2.29931,3.57668 2.29931,8.58688 v 0 29.12444 q 0,1.94447 0.90836,2.7109 0.92258,0.76643 2.2567,0.76643 v 0 h 3.98831 v 5.91856 q -1.43351,0.61031 -3.17928,1.07869 -1.73155,0.45417 -3.97409,0.45417 v 0 q -2.66836,0 -4.39991,-1.06448 -1.73155,-1.07869 -2.65414,-2.96638 -0.92252,-1.88769 -1.23479,-4.24376 v 0 h -0.70964 q -1.84516,2.55477 -4.6554,4.44246 -2.81024,1.8877 -6.2734,2.90961 -3.47733,1.02191 -7.56497,1.02191 z m 2.24253,-7.55078 v 0 q 3.27862,0 6.18824,-1.02191 2.90963,-1.02191 5.15217,-2.9238 2.2567,-1.88769 3.57665,-4.54182 1.33418,-2.65413 1.33418,-5.81921 v 0 -4.49924 q -8.27467,0 -14.10803,0.92256 -5.81925,0.90836 -8.94176,3.26443 -3.10828,2.35607 -3.10828,6.64241 v 0 q 0,2.75348 1.22063,4.49925 1.23479,1.73157 3.47732,2.59735 2.24254,0.87998 5.20888,0.87998 z m 48.95231,6.33016 h -8.99847 v -53.74963 h 7.26692 l 0.80903,8.07593 h 0.72387 q 2.04382,-3.27863 4.59856,-5.32245 2.55481,-2.04382 5.62054,-3.00895 3.06573,-0.97934 6.64239,-0.97934 v 0 q 5.20888,0 8.98431,2.1006 3.7896,2.10059 5.62048,7.21014 v 0 h 0.61031 q 1.94449,-3.27863 4.49924,-5.26567 2.55481,-2.00124 5.71987,-3.02316 3.17928,-1.02191 6.75594,-1.02191 v 0 q 4.89667,0 8.57271,1.689 3.69021,1.68899 5.77664,5.52115 2.1006,3.83216 2.1006,10.27587 v 0 37.49842 h -8.99848 v -36.0791 q 0,-3.26444 -0.76648,-5.4076 -0.76641,-2.14318 -2.19992,-3.32121 -1.41934,-1.17804 -3.32122,-1.68899 -1.88766,-0.51096 -4.03087,-0.51096 v 0 q -3.57666,0 -6.58561,1.84512 -3.02318,1.83092 -4.85406,5.30825 -1.84516,3.47733 -1.84516,8.27463 v 0 31.57986 h -8.99848 v -36.0791 q 0,-3.26444 -0.80903,-5.4076 -0.82319,-2.14318 -2.14315,-3.32121 -1.33418,-1.17804 -3.22183,-1.68899 -1.88772,-0.51096 -3.93154,-0.51096 v 0 q -3.69021,0 -6.79855,1.84512 -3.12251,1.83092 -4.95339,5.30825 -1.84517,3.47733 -1.84517,8.27463 v 0 z"
       fill="#317773"
       id="path8"
       style="fill:#008066;stroke-width:0.610497" />
  </g>
</svg>
